<?xml version="1.0" encoding="UTF-8"?>
<svg width="127px" height="124px" viewBox="0 0 127 124" version="1.1" xmlns="http://www.w3.org/2000/svg" xmlns:xlink="http://www.w3.org/1999/xlink">
    <title>EPIC-BNB</title>
    <defs>
        <linearGradient x1="79.2013378%" y1="7.69465366%" x2="28.2538431%" y2="96.647557%" id="linearGradient-1">
            <stop stop-color="#EB3333" offset="0%"></stop>
            <stop stop-color="#6A0101" offset="100%"></stop>
        </linearGradient>
        <circle id="path-2" cx="46.6648936" cy="46.6648936" r="45.3457447"></circle>
        <filter x="-3.3%" y="-3.3%" width="106.6%" height="106.6%" filterUnits="objectBoundingBox" id="filter-3">
            <feOffset dx="0" dy="0" in="SourceAlpha" result="shadowOffsetOuter1"></feOffset>
            <feMorphology radius="3.96080838" operator="erode" in="SourceAlpha" result="shadowInner"></feMorphology>
            <feOffset dx="0" dy="0" in="shadowInner" result="shadowInner"></feOffset>
            <feComposite in="shadowOffsetOuter1" in2="shadowInner" operator="out" result="shadowOffsetOuter1"></feComposite>
            <feGaussianBlur stdDeviation="1" in="shadowOffsetOuter1" result="shadowBlurOuter1"></feGaussianBlur>
            <feColorMatrix values="0 0 0 0 0   0 0 0 0 0   0 0 0 0 0  0 0 0 0.5 0" type="matrix" in="shadowBlurOuter1"></feColorMatrix>
        </filter>
    </defs>
    <g id="Page-1" stroke="none" stroke-width="1" fill="none" fill-rule="evenodd">
        <g id="EPIC-BNB">
            <g id="BNB">
                <circle id="Oval" fill="#F3BA2F" fill-rule="nonzero" cx="29" cy="29" r="29"></circle>
                <circle id="Oval" stroke="#191326" stroke-width="3" opacity="0.1" style="mix-blend-mode: multiply;" cx="29" cy="29" r="27.5"></circle>
                <g id="Group" transform="translate(9.000000, 9.000000)" fill="#FFFFFF" fill-rule="nonzero">
                    <path d="M12.537472,17.228528 L20.5,9.266 L28.4663,17.231972 L33.0993,12.598972 L20.5,0 L7.9048,12.5952 L12.537636,17.2282 M0,20.5 L4.633164,15.86618 L9.266,20.499016 L4.632836,25.13218 L0,20.5 Z M12.537472,23.771964 L20.5,31.734 L28.466136,23.768192 L33.101596,28.398732 L33.0993,28.401192 L20.5,41 L7.9048,28.4048 L7.89824,28.39824 L12.537964,23.771472 M31.734,20.501968 L36.367164,15.868804 L41,20.50164 L36.367,25.134804 L31.734,20.501968 Z" id="Shape"></path>
                    <polyline id="Path" points="24.9956068 20.4976465 24.9974896 20.4976465 20.5000785 16 17.1758163 19.3232628 17.1758163 19.3232628 16.7939192 19.7053101 16.006276 20.4930965 16 20.4992155 16.006276 20.5056483 20.5000785 25 24.9978034 20.5023535 25 20.4998431 24.9959206 20.4976465"></polyline>
                </g>
            </g>
            <g id="EPIC" transform="translate(32.000000, 29.000000)">
                <circle id="Oval-Copy-7" stroke="url(#linearGradient-1)" stroke-width="1.32026946" fill="#1A1B1B" cx="46.5" cy="46.5" r="46.5"></circle>
                <path d="M78.8988255,39.1717979 C78.8988255,33.2356277 74.0839319,28.4537128 68.1807404,28.4537128 L46.7115915,28.4537128 L49.7126553,35.6100957 L68.1807404,35.6100957 C70.1594638,35.6100957 71.7424426,37.2260532 71.7424426,39.1717979 C71.7424426,41.1505213 70.1264851,42.7335 68.1807404,42.7335 L52.7466979,42.7335 L55.7477617,49.889883 L68.1807404,49.889883 C70.1594638,49.889883 71.7424426,51.5058404 71.7424426,53.4515851 C71.7424426,55.3973298 70.1264851,57.0132872 68.1807404,57.0132872 L56.0445702,57.0132872 L44.864783,30.5973298 L44.4690383,29.7069043 L43.9413787,28.420734 L24.4839319,28.420734 C30.1562723,20.4069043 39.4892511,15.1632872 50.0754213,15.1632872 C58.0232936,15.1632872 65.2786128,18.1313723 70.8190383,23.0122234 C64.6190383,16.5154149 55.8796766,12.4260532 46.2169106,12.4260532 C31.2775489,12.4260532 18.6137191,22.1547766 14.0626553,35.5441383 L18.9105277,35.5441383 L18.9105277,35.5441383 L20.6913787,35.5441383 L20.7573362,35.5441383 C20.7573362,35.5441383 20.7573362,35.5441383 20.7573362,35.5441383 L20.7573362,35.5441383 L39.2254213,35.5441383 L48.2945702,56.9803085 L48.2615915,56.9803085 L51.2626553,64.1366915 L68.1477617,64.1366915 L68.3126553,64.1366915 C74.1498894,64.0377553 78.8658468,59.2888191 78.8658468,53.4186064 C78.8658468,50.6813723 77.8435064,48.1749894 76.1286128,46.2622234 C77.8764851,44.4154149 78.8988255,41.9090319 78.8988255,39.1717979 Z" id="Path-Copy" fill="#FA1A1A" fill-rule="nonzero"></path>
                <path d="M48.9404255,77.8957447 C38.156383,77.8957447 28.6255319,72.4212766 22.9861702,64.143617 L47.3904255,64.143617 L44.3893617,56.987234 L19.3914894,56.987234 C18.6,54.7117021 18.0393617,52.3042553 17.7755319,49.8308511 L41.3553191,49.8308511 L38.3542553,42.6744681 L17.8744681,42.6744681 C17.8744681,42.6744681 17.8744681,42.6744681 17.8744681,42.6744681 L11.3446809,42.6744681 C11.212766,43.9276596 11.1468085,45.1808511 11.1468085,46.4670213 C11.1468085,52.9308511 12.9606383,58.9659574 16.093617,64.1106383 C22.062766,73.8723404 32.8138298,80.4021277 45.0819149,80.4021277 C54.1180851,80.4021277 62.3297872,76.8734043 68.3978723,71.1351064 C63.0223404,75.3893617 56.2946809,77.8957447 48.9404255,77.8957447 Z" id="Path-Copy-2" fill="#FFFFFF"></path>
                <g id="Oval-Copy-4">
                    <use fill="black" fill-opacity="1" filter="url(#filter-3)" xlink:href="#path-2"></use>
                    <circle stroke="#202121" stroke-width="3.96080838" stroke-linejoin="square" cx="46.6648936" cy="46.6648936" r="43.3653405"></circle>
                </g>
            </g>
        </g>
    </g>
</svg>