<?xml version="1.0" encoding="UTF-8"?>
<svg width="125px" height="125" viewBox="0 0 125 121" version="1.1" xmlns="http://www.w3.org/2000/svg" xmlns:xlink="http://www.w3.org/1999/xlink">
    <title>tsla-bnb</title>
    <g id="tsla-bnb" stroke="none" stroke-width="1" fill="none" fill-rule="evenodd">
        <g id="cake-bnb" transform="translate(-0.184121, 0.000000)">
            <circle id="Oval" fill="#F0B90B" fill-rule="nonzero" cx="29" cy="29" r="29"></circle>
            <path d="M18.185,29 L13.748,33.468 L9.28,29 L13.748,24.532 L18.185,29 Z M29,18.185 L36.642,25.827 L41.11,21.359 L33.469,13.748 L29,9.28 L16.921,21.358 L21.389,25.826 L29,18.185 Z M44.252,24.532 L39.815,29 L44.283,33.468 L48.72,29 L44.252,24.532 Z M29,39.815 L21.359,32.173 L16.922,36.641 L29,48.72 L41.109,36.611 L36.641,32.174 L29,39.815 Z M29,33.468 L33.468,29 L29,24.532 L24.532,29 L29,33.468 L29,33.468 Z" id="Shape" fill="#FFFDFA" fill-rule="nonzero"></path>
            <circle id="Oval" stroke="#191326" stroke-width="3" opacity="0.1" style="mix-blend-mode: multiply;" cx="29" cy="29" r="27.5"></circle>
        </g>
        <g id="Group-3" transform="translate(35.000000, 31.000000)">
            <g id="cake-bnb" fill="#092057" fill-rule="nonzero" stroke="#C9E0FF" stroke-width="3">
                <circle id="Oval" cx="43.5" cy="43.5" r="45"></circle>
            </g>
            <g id="Group-2" transform="translate(9.400746, 9.410878)">
                <g id="Group" transform="translate(34.657387, 35.222785) rotate(1.000000) translate(-34.657387, -35.222785) translate(0.599254, 0.589122)">
                    <polygon id="Fill-4" fill="#FFFFFF" transform="translate(34.058133, 34.633664) rotate(-12.000000) translate(-34.058133, -34.633664) " points="62.6419421 22.1923583 54.5079609 22.1930202 54.5081969 19.292168 38.1252051 14.256453 38.1213325 61.8496969 34.0540323 63.965265 29.9879016 61.8503588 29.9917742 14.2566211 13.6079626 19.2954963 13.6077266 22.1963485 5.47374535 22.1970104 5.4743243 15.0817329 34.0588056 5.30206255 62.642521 15.0770808"></polygon>
                    <path d="M41.6929063,45.9324332 L17.574912,45.9324332 L7.0375898,25.609489 L64.1321757,25.609489 L60.15128,32.7223209 L18.4665489,32.7223245 L21.564371,38.81961 L39.2025898,38.819489 L39.2182143,38.8111719 L57.1973411,38.8111719 L46.1990096,58.3829747 L24.5184315,58.3829747 L20.585935,51.2701428 L42.0418419,51.2701392 L45.0249809,45.9239951 L41.7055898,45.923489 L41.6929063,45.9324332 Z" id="Combined-Shape" fill="#1C7DFC" fill-rule="nonzero" transform="translate(35.584883, 41.996232) rotate(-12.000000) translate(-35.584883, -41.996232) "></path>
                    <polygon id="Rectangle-Copy-5" fill="#FFFFFF" transform="translate(35.630628, 42.040895) rotate(-12.000000) translate(-35.630628, -42.040895) " points="31.552744 35.9940227 39.7094966 35.9933589 39.7085125 48.0877676 31.5517599 48.0884314"></polygon>
                </g>
            </g>
        </g>
    </g>
</svg>