<?xml version="1.0" encoding="UTF-8"?>
<svg width="286px" height="286px" viewBox="0 0 286 286" version="1.1" xmlns="http://www.w3.org/2000/svg" xmlns:xlink="http://www.w3.org/1999/xlink">
    <title>Z coin dark</title>
    <defs>
        <linearGradient x1="50%" y1="0%" x2="50%" y2="100%" id="linearGradient-1">
            <stop stop-color="#0C2F5B" offset="0%"></stop>
            <stop stop-color="#280345" offset="99.9480988%"></stop>
        </linearGradient>
        <linearGradient x1="-12.2512868%" y1="-12.8279417%" x2="92.4661571%" y2="91.4680588%" id="linearGradient-2">
            <stop stop-color="#A600FF" offset="0%"></stop>
            <stop stop-color="#00EDFF" offset="99.9535621%"></stop>
        </linearGradient>
        <linearGradient x1="-12.2512868%" y1="-12.4157522%" x2="92.4661571%" y2="91.196003%" id="linearGradient-3">
            <stop stop-color="#A600FF" offset="0%"></stop>
            <stop stop-color="#00EDFF" offset="99.9535621%"></stop>
        </linearGradient>
        <radialGradient cx="50%" cy="50%" fx="50%" fy="50%" r="821.620089%" gradientTransform="translate(0.500000,0.500000),scale(0.131504,1.000000),rotate(8.255201),translate(-0.500000,-0.500000)" id="radialGradient-4">
            <stop stop-color="#9855FF" offset="0%"></stop>
            <stop stop-color="#41CAFE" offset="99.9535621%"></stop>
        </radialGradient>
    </defs>
    <g id="Page-1" stroke="none" stroke-width="1" fill="none" fill-rule="evenodd">
        <g id="Z-coin-dark" transform="translate(2.000000, 2.000000)">
            <circle id="Oval-Copy-17" stroke="url(#linearGradient-2)" stroke-width="4" fill="url(#linearGradient-1)" cx="141" cy="141" r="141"></circle>
            <g id="Group-12-Copy" transform="translate(63.000000, 54.000000)" fill-rule="nonzero">
                <g id="Group-6">
                    <path d="M16.424592,0 L141.415363,1.1945045 L15,126 L15,104.45457 L106.164819,16.0006683 L32.4238187,16.0006683 L32.424592,52.7736303 L16.424592,52.7736303 L16.424592,0 Z M141,22.7161466 L141,45.1365018 L63.0582571,126 L39.8851261,126 L141,22.7161466 Z M141,66.0780408 L141,90.8569822 L107.660017,126 L85.3741761,126 L141,66.0780408 Z" id="Combined-Shape" fill="url(#linearGradient-3)"></path>
                    <path d="M2.046,174.262 L2.046,168.652 C2.354,169.150667 2.80866667,169.561333 3.41,169.884 C4.01133333,170.206667 4.70066667,170.368 5.478,170.368 C6.98866667,170.368 8.18766667,169.84 9.075,168.784 C9.96233333,167.728 10.406,166.393333 10.406,164.78 C10.406,163.181333 9.977,161.861333 9.119,160.82 C8.261,159.778667 7.06933333,159.258 5.544,159.258 C4.72266667,159.258 4.004,159.434 3.388,159.786 C2.772,160.138 2.31,160.592667 2.002,161.15 L2.002,161.15 L2.002,159.5 L0,159.5 L0,174.262 L2.046,174.262 Z M5.17,168.52 C4.23133333,168.52 3.47233333,168.171667 2.893,167.475 C2.31366667,166.778333 2.024,165.88 2.024,164.78 C2.024,163.709333 2.31366667,162.825667 2.893,162.129 C3.47233333,161.432333 4.23133333,161.084 5.17,161.084 C6.12333333,161.084 6.88233333,161.432333 7.447,162.129 C8.01166667,162.825667 8.294,163.709333 8.294,164.78 C8.294,165.88 8.008,166.778333 7.436,167.475 C6.864,168.171667 6.10866667,168.52 5.17,168.52 Z M29.837861,170.412 C30.6885277,170.412 31.3961943,170.236 31.960861,169.884 C32.5255277,169.532 32.9545277,169.121333 33.247861,168.652 C33.247861,169.165333 33.2845277,169.642 33.357861,170.082 L33.357861,170.082 L35.381861,170.082 C35.293861,169.554 35.249861,168.974667 35.249861,168.344 L35.249861,168.344 L35.249861,163.042 C35.249861,161.912667 34.8905277,160.985 34.171861,160.259 C33.4531943,159.533 32.345861,159.17 30.849861,159.17 C29.705861,159.17 28.7231943,159.489 27.901861,160.127 C27.0805277,160.765 26.6185277,161.59 26.515861,162.602 L26.515861,162.602 L28.495861,163.064 C28.5691943,162.418667 28.8111943,161.901667 29.221861,161.513 C29.6325277,161.124333 30.189861,160.93 30.893861,160.93 C31.6565277,160.93 32.2285277,161.106 32.609861,161.458 C32.9911943,161.81 33.181861,162.264667 33.181861,162.822 C33.181861,163.276667 32.9105277,163.540667 32.367861,163.614 L32.367861,163.614 L29.507861,164.032 C28.539861,164.164 27.7625277,164.505 27.175861,165.055 C26.5891943,165.605 26.295861,166.334667 26.295861,167.244 C26.295861,168.109333 26.625861,168.853667 27.285861,169.477 C27.945861,170.100333 28.7965277,170.412 29.837861,170.412 Z M30.123861,168.674 C29.6105277,168.674 29.1961943,168.52 28.880861,168.212 C28.5655277,167.904 28.407861,167.544667 28.407861,167.134 C28.407861,166.679333 28.5471943,166.32 28.825861,166.056 C29.1045277,165.792 29.4785277,165.623333 29.947861,165.55 L29.947861,165.55 L33.181861,165.066 L33.181861,165.55 C33.181861,166.635333 32.9031943,167.427333 32.345861,167.926 C31.7885277,168.424667 31.047861,168.674 30.123861,168.674 Z M59.983722,170.082 L59.983722,168.212 L54.065722,168.212 L59.873722,161.304 L59.873722,159.5 L51.579722,159.5 L51.579722,161.37 L57.299722,161.37 L51.491722,168.278 L51.491722,170.082 L59.983722,170.082 Z M84.145583,170.082 L84.145583,168.212 L78.227583,168.212 L84.035583,161.304 L84.035583,159.5 L75.741583,159.5 L75.741583,161.37 L81.461583,161.37 L75.653583,168.278 L75.653583,170.082 L84.145583,170.082 Z M101.707444,156.97 C102.118111,156.97 102.470111,156.827 102.763444,156.541 C103.056777,156.255 103.203444,155.906667 103.203444,155.496 C103.203444,155.070667 103.056777,154.715 102.763444,154.429 C102.470111,154.143 102.118111,154 101.707444,154 C101.296777,154 100.948444,154.146667 100.662444,154.44 C100.376444,154.733333 100.233444,155.085333 100.233444,155.496 C100.233444,155.906667 100.372777,156.258667 100.651444,156.552 C100.944777,156.830667 101.296777,156.97 101.707444,156.97 Z M102.741444,170.082 L102.741444,159.5 L100.695444,159.5 L100.695444,170.082 L102.741444,170.082 Z M125.011305,170.082 L129.235305,159.5 L127.013305,159.5 L123.977305,167.662 L120.963305,159.5 L118.631305,159.5 L122.921305,170.082 L125.011305,170.082 Z M149.261166,170.412 C150.449166,170.412 151.461166,170.100333 152.297166,169.477 C153.133166,168.853667 153.705166,168.050667 154.013166,167.068 L154.013166,167.068 L152.231166,166.452 C151.761833,167.874667 150.771833,168.586 149.261166,168.586 C148.366499,168.586 147.614833,168.285333 147.006166,167.684 C146.397499,167.082667 146.085833,166.312667 146.071166,165.374 L146.071166,165.374 L154.035166,165.374 C154.064499,165.198 154.079166,164.978 154.079166,164.714 C154.079166,163.027333 153.631833,161.681667 152.737166,160.677 C151.842499,159.672333 150.595833,159.17 148.997166,159.17 C147.618499,159.17 146.430499,159.698 145.433166,160.754 C144.435833,161.81 143.937166,163.144667 143.937166,164.758 C143.937166,166.488667 144.454166,167.863667 145.488166,168.883 C146.522166,169.902333 147.779833,170.412 149.261166,170.412 Z M151.923166,163.702 L146.137166,163.702 C146.181166,162.968667 146.467166,162.334333 146.995166,161.799 C147.523166,161.263667 148.197833,160.996 149.019166,160.996 C149.928499,160.996 150.632499,161.249 151.131166,161.755 C151.629833,162.261 151.893833,162.91 151.923166,163.702 L151.923166,163.702 Z" id="pazzive" fill="url(#radialGradient-4)"></path>
                </g>
            </g>
        </g>
    </g>
</svg>