<?xml version="1.0" encoding="UTF-8"?>
<svg width="162px" height="162px" viewBox="0 0 162 162" version="1.1" xmlns="http://www.w3.org/2000/svg" xmlns:xlink="http://www.w3.org/1999/xlink">
    <title>renew</title>
    <g id="Page-1" stroke="none" stroke-width="1" fill="none" fill-rule="evenodd">
        <g id="renew">
            <path d="M81,0 C125.735065,0 162,36.2649353 162,81 C162,125.735065 125.735065,162 81,162 C36.2649353,162 0,125.735065 0,81 C0,36.2649353 36.2649353,0 81,0 Z" id="Path" fill="#145506" fill-rule="nonzero"></path>
            <path d="M81,11 C42.3400675,11 11,42.3400675 11,81 C11,119.659932 42.3400675,151 81,151 C119.659932,151 151,119.659932 151,81 C151,42.3400675 119.659932,11 81,11 Z" id="Path" fill="#7FE972" fill-rule="nonzero"></path>
            <path d="M41.8525976,54.6736961 L35.7217624,54.6736961 C34.0182479,54.6736961 33.1087983,52.7439548 34.1336326,51.3820518 L35.269309,49.793922 C38.2238845,45.592828 41.6309135,41.6179609 45.1487846,37.8693204 L45.2641239,37.7539811 C46.3998002,36.392078 48.3295414,36.392078 49.4652178,37.7539811 C53.0984735,41.5026216 56.3946605,45.4774888 59.4600781,49.6785827 L60.5957545,51.2667125 C61.6160915,52.6286155 60.7110938,54.5583568 59.0076247,54.5583568 L52.8767895,54.5583568 C53.2183782,71.2516633 66.9569048,84.7696188 83.7660503,84.7696188 C89.7860434,84.7696188 95.3488133,83.0661043 100.117518,80.1115287 C102.273486,78.7496256 105.001835,79.2021018 106.816192,80.9056163 C109.313771,83.4031957 108.861318,87.6042896 105.795855,89.4231889 C99.4342499,93.3980561 91.8258999,95.6694087 83.7660049,95.6694087 C60.9286893,95.8956582 42.304733,77.4985873 41.8527338,54.6737642 L41.8525976,54.6736961 Z" id="Path" fill="#145506" transform="translate(71.065429, 66.202014) rotate(100.000000) translate(-71.065429, -66.202014) "></path>
            <path d="M55.162392,80.9130567 C56.9812912,82.731956 59.7050973,83.0690247 61.8610653,81.7071444 C66.6299974,78.7525688 72.1975371,77.0490543 78.2125333,77.0490543 C95.0216788,77.0490543 108.759955,90.5613314 109.101794,107.260316 L102.970959,107.260316 C101.267444,107.260316 100.357995,109.190058 101.382829,110.551961 L102.518505,112.14009 C105.583923,116.341184 108.88011,120.316051 112.513366,124.064692 C113.649042,125.426595 115.578783,125.426595 116.71446,124.064692 L116.829799,123.949353 C120.463055,120.200712 123.759242,116.225845 126.709275,112.024751 L127.844951,110.436621 C128.865288,109.074718 127.96029,107.144977 126.256821,107.144977 L120.125986,107.144977 C119.784397,84.3156112 101.161327,65.9187902 78.2218004,65.9187902 C70.1566813,65.9187902 62.5483312,68.1901428 56.1919507,72.16501 C53.232946,74.2145651 52.6651078,78.415659 55.162744,80.9132384 L55.162392,80.9130567 Z" id="Path" fill="#145506" transform="translate(90.930957, 95.502455) rotate(100.000000) translate(-90.930957, -95.502455) "></path>
        </g>
    </g>
</svg>